<?xml version="1.0" encoding="utf-8" standalone="no"?>
<!DOCTYPE svg PUBLIC "-//W3C//DTD SVG 1.1//EN"
  "http://www.w3.org/Graphics/SVG/1.1/DTD/svg11.dtd">
<!-- Created with matplotlib (http://matplotlib.org/) -->
<svg height="432pt" version="1.1" viewBox="0 0 576 432" width="576pt" xmlns="http://www.w3.org/2000/svg" xmlns:xlink="http://www.w3.org/1999/xlink">
 <defs>
  <style type="text/css">
*{stroke-linecap:butt;stroke-linejoin:round;stroke-miterlimit:100000;}
  </style>
 </defs>
 <g id="figure_1">
  <g id="patch_1">
   <path d="M 0 432 
L 576 432 
L 576 0 
L 0 0 
z
" style="fill:#ffffff;"/>
  </g>
  <g id="axes_1">
   <g id="patch_2">
    <path d="M 72 388.8 
L 518.4 388.8 
L 518.4 43.2 
L 72 43.2 
z
" style="fill:#ffffff;"/>
   </g>
   <g id="line2d_1">
    <path clip-path="url(#pec9dfa7cec)" d="M 95.715 367.818771 
L 104.085 367.818771 
L 104.085 357.724291 
L 95.715 357.724291 
L 95.715 367.818771 
" style="fill:none;stroke:#0000ff;stroke-linecap:square;"/>
   </g>
   <g id="line2d_2">
    <path clip-path="url(#pec9dfa7cec)" d="M 99.9 367.818771 
L 99.9 382.420785 
" style="fill:none;stroke:#0000ff;stroke-dasharray:6.000000,6.000000;stroke-dashoffset:0.0;"/>
   </g>
   <g id="line2d_3">
    <path clip-path="url(#pec9dfa7cec)" d="M 99.9 357.724291 
L 99.9 343.460304 
" style="fill:none;stroke:#0000ff;stroke-dasharray:6.000000,6.000000;stroke-dashoffset:0.0;"/>
   </g>
   <g id="line2d_4">
    <path clip-path="url(#pec9dfa7cec)" d="M 97.8075 382.420785 
L 101.9925 382.420785 
" style="fill:none;stroke:#000000;stroke-linecap:square;"/>
   </g>
   <g id="line2d_5">
    <path clip-path="url(#pec9dfa7cec)" d="M 97.8075 343.460304 
L 101.9925 343.460304 
" style="fill:none;stroke:#000000;stroke-linecap:square;"/>
   </g>
   <g id="line2d_6">
    <path clip-path="url(#pec9dfa7cec)" d="M 95.715 362.447287 
L 104.085 362.447287 
" style="fill:none;stroke:#ff0000;stroke-linecap:square;"/>
   </g>
   <g id="line2d_7">
    <defs>
     <path d="M -3 0 
L 3 0 
M 0 3 
L 0 -3 
" id="md51e5b5d80" style="stroke:#000000;stroke-width:0.5;"/>
    </defs>
    <g clip-path="url(#pec9dfa7cec)">
     <use style="fill:#0000ff;stroke:#000000;stroke-width:0.5;" x="99.9" xlink:href="#md51e5b5d80" y="387.229780354"/>
     <use style="fill:#0000ff;stroke:#000000;stroke-width:0.5;" x="99.9" xlink:href="#md51e5b5d80" y="384.879820482"/>
     <use style="fill:#0000ff;stroke:#000000;stroke-width:0.5;" x="99.9" xlink:href="#md51e5b5d80" y="385.957265908"/>
     <use style="fill:#0000ff;stroke:#000000;stroke-width:0.5;" x="99.9" xlink:href="#md51e5b5d80" y="388.045167447"/>
     <use style="fill:#0000ff;stroke:#000000;stroke-width:0.5;" x="99.9" xlink:href="#md51e5b5d80" y="386.432716724"/>
     <use style="fill:#0000ff;stroke:#000000;stroke-width:0.5;" x="99.9" xlink:href="#md51e5b5d80" y="387.401066782"/>
     <use style="fill:#0000ff;stroke:#000000;stroke-width:0.5;" x="99.9" xlink:href="#md51e5b5d80" y="383.344309147"/>
     <use style="fill:#0000ff;stroke:#000000;stroke-width:0.5;" x="99.9" xlink:href="#md51e5b5d80" y="386.146670777"/>
     <use style="fill:#0000ff;stroke:#000000;stroke-width:0.5;" x="99.9" xlink:href="#md51e5b5d80" y="386.870672039"/>
     <use style="fill:#0000ff;stroke:#000000;stroke-width:0.5;" x="99.9" xlink:href="#md51e5b5d80" y="385.23060885"/>
     <use style="fill:#0000ff;stroke:#000000;stroke-width:0.5;" x="99.9" xlink:href="#md51e5b5d80" y="387.391142556"/>
     <use style="fill:#0000ff;stroke:#000000;stroke-width:0.5;" x="99.9" xlink:href="#md51e5b5d80" y="383.450184694"/>
     <use style="fill:#0000ff;stroke:#000000;stroke-width:0.5;" x="99.9" xlink:href="#md51e5b5d80" y="388.143853812"/>
     <use style="fill:#0000ff;stroke:#000000;stroke-width:0.5;" x="99.9" xlink:href="#md51e5b5d80" y="385.832223758"/>
     <use style="fill:#0000ff;stroke:#000000;stroke-width:0.5;" x="99.9" xlink:href="#md51e5b5d80" y="341.698390426"/>
     <use style="fill:#0000ff;stroke:#000000;stroke-width:0.5;" x="99.9" xlink:href="#md51e5b5d80" y="341.789461997"/>
     <use style="fill:#0000ff;stroke:#000000;stroke-width:0.5;" x="99.9" xlink:href="#md51e5b5d80" y="341.368095077"/>
     <use style="fill:#0000ff;stroke:#000000;stroke-width:0.5;" x="99.9" xlink:href="#md51e5b5d80" y="339.507257107"/>
     <use style="fill:#0000ff;stroke:#000000;stroke-width:0.5;" x="99.9" xlink:href="#md51e5b5d80" y="342.021793047"/>
    </g>
   </g>
   <g id="line2d_8">
    <path clip-path="url(#pec9dfa7cec)" d="M 85.95 244.713553 
L 113.85 244.713553 
L 113.85 171.875676 
L 85.95 171.875676 
L 85.95 244.713553 
" style="fill:none;stroke:#0000ff;stroke-linecap:square;"/>
   </g>
   <g id="line2d_9">
    <path clip-path="url(#pec9dfa7cec)" d="M 99.9 244.713553 
L 99.9 353.523542 
" style="fill:none;stroke:#0000ff;stroke-dasharray:6.000000,6.000000;stroke-dashoffset:0.0;"/>
   </g>
   <g id="line2d_10">
    <path clip-path="url(#pec9dfa7cec)" d="M 99.9 171.875676 
L 99.9 112.940593 
" style="fill:none;stroke:#0000ff;stroke-dasharray:6.000000,6.000000;stroke-dashoffset:0.0;"/>
   </g>
   <g id="line2d_11">
    <path clip-path="url(#pec9dfa7cec)" d="M 92.925 353.523542 
L 106.875 353.523542 
" style="fill:none;stroke:#000000;stroke-linecap:square;"/>
   </g>
   <g id="line2d_12">
    <path clip-path="url(#pec9dfa7cec)" d="M 92.925 112.940593 
L 106.875 112.940593 
" style="fill:none;stroke:#000000;stroke-linecap:square;"/>
   </g>
   <g id="line2d_13">
    <path clip-path="url(#pec9dfa7cec)" d="M 85.95 200.15455 
L 113.85 200.15455 
" style="fill:none;stroke:#ff0000;stroke-linecap:square;"/>
   </g>
   <g id="line2d_14">
    <path clip-path="url(#pec9dfa7cec)" d="M 99.9 213.038606 
" style="fill:none;stroke:#ff0000;stroke-linecap:square;"/>
    <defs>
     <path d="M -3 3 
L 3 3 
L 3 -3 
L -3 -3 
z
" id="m753ed33c0b" style="stroke:#000000;stroke-linejoin:miter;stroke-width:0.5;"/>
    </defs>
    <g clip-path="url(#pec9dfa7cec)">
     <use style="fill:#ff0000;stroke:#000000;stroke-linejoin:miter;stroke-width:0.5;" x="99.9" xlink:href="#m753ed33c0b" y="213.03860639"/>
    </g>
   </g>
   <g id="line2d_15">
    <path clip-path="url(#pec9dfa7cec)" d="M 141.75 249.52211 
L 169.65 249.52211 
L 169.65 178.39734 
L 141.75 178.39734 
L 141.75 249.52211 
" style="fill:none;stroke:#0000ff;stroke-linecap:square;"/>
   </g>
   <g id="line2d_16">
    <path clip-path="url(#pec9dfa7cec)" d="M 155.7 249.52211 
L 155.7 355.61822 
" style="fill:none;stroke:#0000ff;stroke-dasharray:6.000000,6.000000;stroke-dashoffset:0.0;"/>
   </g>
   <g id="line2d_17">
    <path clip-path="url(#pec9dfa7cec)" d="M 155.7 178.39734 
L 155.7 85.747083 
" style="fill:none;stroke:#0000ff;stroke-dasharray:6.000000,6.000000;stroke-dashoffset:0.0;"/>
   </g>
   <g id="line2d_18">
    <path clip-path="url(#pec9dfa7cec)" d="M 148.725 355.61822 
L 162.675 355.61822 
" style="fill:none;stroke:#000000;stroke-linecap:square;"/>
   </g>
   <g id="line2d_19">
    <path clip-path="url(#pec9dfa7cec)" d="M 148.725 85.747083 
L 162.675 85.747083 
" style="fill:none;stroke:#000000;stroke-linecap:square;"/>
   </g>
   <g id="line2d_20">
    <path clip-path="url(#pec9dfa7cec)" d="M 141.75 210.857458 
L 169.65 210.857458 
" style="fill:none;stroke:#ff0000;stroke-linecap:square;"/>
   </g>
   <g id="line2d_21">
    <path clip-path="url(#pec9dfa7cec)" d="M 155.7 217.445493 
" style="fill:none;stroke:#ff0000;stroke-linecap:square;"/>
    <g clip-path="url(#pec9dfa7cec)">
     <use style="fill:#ff0000;stroke:#000000;stroke-linejoin:miter;stroke-width:0.5;" x="155.7" xlink:href="#m753ed33c0b" y="217.445493188"/>
    </g>
   </g>
   <g id="line2d_22">
    <path clip-path="url(#pec9dfa7cec)" d="M 197.55 257.194782 
L 225.45 257.194782 
L 225.45 184.234843 
L 197.55 184.234843 
L 197.55 257.194782 
" style="fill:none;stroke:#0000ff;stroke-linecap:square;"/>
   </g>
   <g id="line2d_23">
    <path clip-path="url(#pec9dfa7cec)" d="M 211.5 257.194782 
L 211.5 362.333249 
" style="fill:none;stroke:#0000ff;stroke-dasharray:6.000000,6.000000;stroke-dashoffset:0.0;"/>
   </g>
   <g id="line2d_24">
    <path clip-path="url(#pec9dfa7cec)" d="M 211.5 184.234843 
L 211.5 86.027074 
" style="fill:none;stroke:#0000ff;stroke-dasharray:6.000000,6.000000;stroke-dashoffset:0.0;"/>
   </g>
   <g id="line2d_25">
    <path clip-path="url(#pec9dfa7cec)" d="M 204.525 362.333249 
L 218.475 362.333249 
" style="fill:none;stroke:#000000;stroke-linecap:square;"/>
   </g>
   <g id="line2d_26">
    <path clip-path="url(#pec9dfa7cec)" d="M 204.525 86.027074 
L 218.475 86.027074 
" style="fill:none;stroke:#000000;stroke-linecap:square;"/>
   </g>
   <g id="line2d_27">
    <path clip-path="url(#pec9dfa7cec)" d="M 197.55 218.546421 
L 225.45 218.546421 
" style="fill:none;stroke:#ff0000;stroke-linecap:square;"/>
   </g>
   <g id="line2d_28">
    <path clip-path="url(#pec9dfa7cec)" d="M 211.5 223.299161 
" style="fill:none;stroke:#ff0000;stroke-linecap:square;"/>
    <g clip-path="url(#pec9dfa7cec)">
     <use style="fill:#ff0000;stroke:#000000;stroke-linejoin:miter;stroke-width:0.5;" x="211.5" xlink:href="#m753ed33c0b" y="223.299160752"/>
    </g>
   </g>
   <g id="line2d_29">
    <path clip-path="url(#pec9dfa7cec)" d="M 253.35 264.117446 
L 281.25 264.117446 
L 281.25 198.570081 
L 253.35 198.570081 
L 253.35 264.117446 
" style="fill:none;stroke:#0000ff;stroke-linecap:square;"/>
   </g>
   <g id="line2d_30">
    <path clip-path="url(#pec9dfa7cec)" d="M 267.3 264.117446 
L 267.3 359.469561 
" style="fill:none;stroke:#0000ff;stroke-dasharray:6.000000,6.000000;stroke-dashoffset:0.0;"/>
   </g>
   <g id="line2d_31">
    <path clip-path="url(#pec9dfa7cec)" d="M 267.3 198.570081 
L 267.3 107.027526 
" style="fill:none;stroke:#0000ff;stroke-dasharray:6.000000,6.000000;stroke-dashoffset:0.0;"/>
   </g>
   <g id="line2d_32">
    <path clip-path="url(#pec9dfa7cec)" d="M 260.325 359.469561 
L 274.275 359.469561 
" style="fill:none;stroke:#000000;stroke-linecap:square;"/>
   </g>
   <g id="line2d_33">
    <path clip-path="url(#pec9dfa7cec)" d="M 260.325 107.027526 
L 274.275 107.027526 
" style="fill:none;stroke:#000000;stroke-linecap:square;"/>
   </g>
   <g id="line2d_34">
    <path clip-path="url(#pec9dfa7cec)" d="M 253.35 229.694921 
L 281.25 229.694921 
" style="fill:none;stroke:#ff0000;stroke-linecap:square;"/>
   </g>
   <g id="line2d_35">
    <path clip-path="url(#pec9dfa7cec)" d="M 267.3 233.343925 
" style="fill:none;stroke:#ff0000;stroke-linecap:square;"/>
    <g clip-path="url(#pec9dfa7cec)">
     <use style="fill:#ff0000;stroke:#000000;stroke-linejoin:miter;stroke-width:0.5;" x="267.3" xlink:href="#m753ed33c0b" y="233.343924914"/>
    </g>
   </g>
   <g id="line2d_36">
    <path clip-path="url(#pec9dfa7cec)" d="M 309.15 263.2086 
L 337.05 263.2086 
L 337.05 200.517016 
L 309.15 200.517016 
L 309.15 263.2086 
" style="fill:none;stroke:#0000ff;stroke-linecap:square;"/>
   </g>
   <g id="line2d_37">
    <path clip-path="url(#pec9dfa7cec)" d="M 323.1 263.2086 
L 323.1 355.536431 
" style="fill:none;stroke:#0000ff;stroke-dasharray:6.000000,6.000000;stroke-dashoffset:0.0;"/>
   </g>
   <g id="line2d_38">
    <path clip-path="url(#pec9dfa7cec)" d="M 323.1 200.517016 
L 323.1 114.888502 
" style="fill:none;stroke:#0000ff;stroke-dasharray:6.000000,6.000000;stroke-dashoffset:0.0;"/>
   </g>
   <g id="line2d_39">
    <path clip-path="url(#pec9dfa7cec)" d="M 316.125 355.536431 
L 330.075 355.536431 
" style="fill:none;stroke:#000000;stroke-linecap:square;"/>
   </g>
   <g id="line2d_40">
    <path clip-path="url(#pec9dfa7cec)" d="M 316.125 114.888502 
L 330.075 114.888502 
" style="fill:none;stroke:#000000;stroke-linecap:square;"/>
   </g>
   <g id="line2d_41">
    <path clip-path="url(#pec9dfa7cec)" d="M 309.15 228.982267 
L 337.05 228.982267 
" style="fill:none;stroke:#ff0000;stroke-linecap:square;"/>
   </g>
   <g id="line2d_42">
    <path clip-path="url(#pec9dfa7cec)" d="M 323.1 233.973576 
" style="fill:none;stroke:#ff0000;stroke-linecap:square;"/>
    <g clip-path="url(#pec9dfa7cec)">
     <use style="fill:#ff0000;stroke:#000000;stroke-linejoin:miter;stroke-width:0.5;" x="323.1" xlink:href="#m753ed33c0b" y="233.973576265"/>
    </g>
   </g>
   <g id="line2d_43">
    <path clip-path="url(#pec9dfa7cec)" d="M 364.95 304.917352 
L 392.85 304.917352 
L 392.85 266.499762 
L 364.95 266.499762 
L 364.95 304.917352 
" style="fill:none;stroke:#0000ff;stroke-linecap:square;"/>
   </g>
   <g id="line2d_44">
    <path clip-path="url(#pec9dfa7cec)" d="M 378.9 304.917352 
L 378.9 362.140632 
" style="fill:none;stroke:#0000ff;stroke-dasharray:6.000000,6.000000;stroke-dashoffset:0.0;"/>
   </g>
   <g id="line2d_45">
    <path clip-path="url(#pec9dfa7cec)" d="M 378.9 266.499762 
L 378.9 211.240086 
" style="fill:none;stroke:#0000ff;stroke-dasharray:6.000000,6.000000;stroke-dashoffset:0.0;"/>
   </g>
   <g id="line2d_46">
    <path clip-path="url(#pec9dfa7cec)" d="M 371.925 362.140632 
L 385.875 362.140632 
" style="fill:none;stroke:#000000;stroke-linecap:square;"/>
   </g>
   <g id="line2d_47">
    <path clip-path="url(#pec9dfa7cec)" d="M 371.925 211.240086 
L 385.875 211.240086 
" style="fill:none;stroke:#000000;stroke-linecap:square;"/>
   </g>
   <g id="line2d_48">
    <path clip-path="url(#pec9dfa7cec)" d="M 364.95 283.464246 
L 392.85 283.464246 
" style="fill:none;stroke:#ff0000;stroke-linecap:square;"/>
   </g>
   <g id="line2d_49">
    <path clip-path="url(#pec9dfa7cec)" d="M 378.9 286.607672 
" style="fill:none;stroke:#ff0000;stroke-linecap:square;"/>
    <g clip-path="url(#pec9dfa7cec)">
     <use style="fill:#ff0000;stroke:#000000;stroke-linejoin:miter;stroke-width:0.5;" x="378.9" xlink:href="#m753ed33c0b" y="286.607671908"/>
    </g>
   </g>
   <g id="line2d_50">
    <path clip-path="url(#pec9dfa7cec)" d="M 420.75 354.481284 
L 448.65 354.481284 
L 448.65 339.224746 
L 420.75 339.224746 
L 420.75 354.481284 
" style="fill:none;stroke:#0000ff;stroke-linecap:square;"/>
   </g>
   <g id="line2d_51">
    <path clip-path="url(#pec9dfa7cec)" d="M 434.7 354.481284 
L 434.7 376.147401 
" style="fill:none;stroke:#0000ff;stroke-dasharray:6.000000,6.000000;stroke-dashoffset:0.0;"/>
   </g>
   <g id="line2d_52">
    <path clip-path="url(#pec9dfa7cec)" d="M 434.7 339.224746 
L 434.7 316.913955 
" style="fill:none;stroke:#0000ff;stroke-dasharray:6.000000,6.000000;stroke-dashoffset:0.0;"/>
   </g>
   <g id="line2d_53">
    <path clip-path="url(#pec9dfa7cec)" d="M 427.725 376.147401 
L 441.675 376.147401 
" style="fill:none;stroke:#000000;stroke-linecap:square;"/>
   </g>
   <g id="line2d_54">
    <path clip-path="url(#pec9dfa7cec)" d="M 427.725 316.913955 
L 441.675 316.913955 
" style="fill:none;stroke:#000000;stroke-linecap:square;"/>
   </g>
   <g id="line2d_55">
    <path clip-path="url(#pec9dfa7cec)" d="M 420.75 346.470641 
L 448.65 346.470641 
" style="fill:none;stroke:#ff0000;stroke-linecap:square;"/>
   </g>
   <g id="line2d_56">
    <path clip-path="url(#pec9dfa7cec)" d="M 434.7 347.445519 
" style="fill:none;stroke:#ff0000;stroke-linecap:square;"/>
    <g clip-path="url(#pec9dfa7cec)">
     <use style="fill:#ff0000;stroke:#000000;stroke-linejoin:miter;stroke-width:0.5;" x="434.7" xlink:href="#m753ed33c0b" y="347.445519445"/>
    </g>
   </g>
   <g id="line2d_57">
    <path clip-path="url(#pec9dfa7cec)" d="M 476.55 367.818771 
L 504.45 367.818771 
L 504.45 357.724291 
L 476.55 357.724291 
L 476.55 367.818771 
" style="fill:none;stroke:#0000ff;stroke-linecap:square;"/>
   </g>
   <g id="line2d_58">
    <path clip-path="url(#pec9dfa7cec)" d="M 490.5 367.818771 
L 490.5 382.420785 
" style="fill:none;stroke:#0000ff;stroke-dasharray:6.000000,6.000000;stroke-dashoffset:0.0;"/>
   </g>
   <g id="line2d_59">
    <path clip-path="url(#pec9dfa7cec)" d="M 490.5 357.724291 
L 490.5 343.460304 
" style="fill:none;stroke:#0000ff;stroke-dasharray:6.000000,6.000000;stroke-dashoffset:0.0;"/>
   </g>
   <g id="line2d_60">
    <path clip-path="url(#pec9dfa7cec)" d="M 483.525 382.420785 
L 497.475 382.420785 
" style="fill:none;stroke:#000000;stroke-linecap:square;"/>
   </g>
   <g id="line2d_61">
    <path clip-path="url(#pec9dfa7cec)" d="M 483.525 343.460304 
L 497.475 343.460304 
" style="fill:none;stroke:#000000;stroke-linecap:square;"/>
   </g>
   <g id="line2d_62">
    <path clip-path="url(#pec9dfa7cec)" d="M 476.55 362.447287 
L 504.45 362.447287 
" style="fill:none;stroke:#ff0000;stroke-linecap:square;"/>
   </g>
   <g id="line2d_63">
    <path clip-path="url(#pec9dfa7cec)" d="M 490.5 362.973126 
" style="fill:none;stroke:#ff0000;stroke-linecap:square;"/>
    <g clip-path="url(#pec9dfa7cec)">
     <use style="fill:#ff0000;stroke:#000000;stroke-linejoin:miter;stroke-width:0.5;" x="490.5" xlink:href="#m753ed33c0b" y="362.973125869"/>
    </g>
   </g>
   <g id="line2d_64">
    <path clip-path="url(#pec9dfa7cec)" d="M 85.95 244.713553 
L 113.85 244.713553 
L 113.85 171.875676 
L 85.95 171.875676 
L 85.95 244.713553 
" style="fill:none;stroke:#0000ff;stroke-linecap:square;"/>
   </g>
   <g id="line2d_65">
    <path clip-path="url(#pec9dfa7cec)" d="M 99.9 244.713553 
L 99.9 353.523542 
" style="fill:none;stroke:#0000ff;stroke-dasharray:6.000000,6.000000;stroke-dashoffset:0.0;"/>
   </g>
   <g id="line2d_66">
    <path clip-path="url(#pec9dfa7cec)" d="M 99.9 171.875676 
L 99.9 112.940593 
" style="fill:none;stroke:#0000ff;stroke-dasharray:6.000000,6.000000;stroke-dashoffset:0.0;"/>
   </g>
   <g id="line2d_67">
    <path clip-path="url(#pec9dfa7cec)" d="M 92.925 353.523542 
L 106.875 353.523542 
" style="fill:none;stroke:#000000;stroke-linecap:square;"/>
   </g>
   <g id="line2d_68">
    <path clip-path="url(#pec9dfa7cec)" d="M 92.925 112.940593 
L 106.875 112.940593 
" style="fill:none;stroke:#000000;stroke-linecap:square;"/>
   </g>
   <g id="line2d_69">
    <path clip-path="url(#pec9dfa7cec)" d="M 85.95 200.15455 
L 113.85 200.15455 
" style="fill:none;stroke:#ff0000;stroke-linecap:square;"/>
   </g>
   <g id="line2d_70">
    <path clip-path="url(#pec9dfa7cec)" d="M 99.9 213.038606 
" style="fill:none;stroke:#ff0000;stroke-linecap:square;"/>
    <g clip-path="url(#pec9dfa7cec)">
     <use style="fill:#ff0000;stroke:#000000;stroke-linejoin:miter;stroke-width:0.5;" x="99.9" xlink:href="#m753ed33c0b" y="213.03860639"/>
    </g>
   </g>
   <g id="line2d_71">
    <path clip-path="url(#pec9dfa7cec)" d="M 141.75 249.52211 
L 169.65 249.52211 
L 169.65 178.39734 
L 141.75 178.39734 
L 141.75 249.52211 
" style="fill:none;stroke:#0000ff;stroke-linecap:square;"/>
   </g>
   <g id="line2d_72">
    <path clip-path="url(#pec9dfa7cec)" d="M 155.7 249.52211 
L 155.7 355.61822 
" style="fill:none;stroke:#0000ff;stroke-dasharray:6.000000,6.000000;stroke-dashoffset:0.0;"/>
   </g>
   <g id="line2d_73">
    <path clip-path="url(#pec9dfa7cec)" d="M 155.7 178.39734 
L 155.7 85.747083 
" style="fill:none;stroke:#0000ff;stroke-dasharray:6.000000,6.000000;stroke-dashoffset:0.0;"/>
   </g>
   <g id="line2d_74">
    <path clip-path="url(#pec9dfa7cec)" d="M 148.725 355.61822 
L 162.675 355.61822 
" style="fill:none;stroke:#000000;stroke-linecap:square;"/>
   </g>
   <g id="line2d_75">
    <path clip-path="url(#pec9dfa7cec)" d="M 148.725 85.747083 
L 162.675 85.747083 
" style="fill:none;stroke:#000000;stroke-linecap:square;"/>
   </g>
   <g id="line2d_76">
    <path clip-path="url(#pec9dfa7cec)" d="M 141.75 210.857458 
L 169.65 210.857458 
" style="fill:none;stroke:#ff0000;stroke-linecap:square;"/>
   </g>
   <g id="line2d_77">
    <path clip-path="url(#pec9dfa7cec)" d="M 155.7 217.445493 
" style="fill:none;stroke:#ff0000;stroke-linecap:square;"/>
    <g clip-path="url(#pec9dfa7cec)">
     <use style="fill:#ff0000;stroke:#000000;stroke-linejoin:miter;stroke-width:0.5;" x="155.7" xlink:href="#m753ed33c0b" y="217.445493188"/>
    </g>
   </g>
   <g id="line2d_78">
    <path clip-path="url(#pec9dfa7cec)" d="M 197.55 257.194782 
L 225.45 257.194782 
L 225.45 184.234843 
L 197.55 184.234843 
L 197.55 257.194782 
" style="fill:none;stroke:#0000ff;stroke-linecap:square;"/>
   </g>
   <g id="line2d_79">
    <path clip-path="url(#pec9dfa7cec)" d="M 211.5 257.194782 
L 211.5 362.333249 
" style="fill:none;stroke:#0000ff;stroke-dasharray:6.000000,6.000000;stroke-dashoffset:0.0;"/>
   </g>
   <g id="line2d_80">
    <path clip-path="url(#pec9dfa7cec)" d="M 211.5 184.234843 
L 211.5 86.027074 
" style="fill:none;stroke:#0000ff;stroke-dasharray:6.000000,6.000000;stroke-dashoffset:0.0;"/>
   </g>
   <g id="line2d_81">
    <path clip-path="url(#pec9dfa7cec)" d="M 204.525 362.333249 
L 218.475 362.333249 
" style="fill:none;stroke:#000000;stroke-linecap:square;"/>
   </g>
   <g id="line2d_82">
    <path clip-path="url(#pec9dfa7cec)" d="M 204.525 86.027074 
L 218.475 86.027074 
" style="fill:none;stroke:#000000;stroke-linecap:square;"/>
   </g>
   <g id="line2d_83">
    <path clip-path="url(#pec9dfa7cec)" d="M 197.55 218.546421 
L 225.45 218.546421 
" style="fill:none;stroke:#ff0000;stroke-linecap:square;"/>
   </g>
   <g id="line2d_84">
    <path clip-path="url(#pec9dfa7cec)" d="M 211.5 223.299161 
" style="fill:none;stroke:#ff0000;stroke-linecap:square;"/>
    <g clip-path="url(#pec9dfa7cec)">
     <use style="fill:#ff0000;stroke:#000000;stroke-linejoin:miter;stroke-width:0.5;" x="211.5" xlink:href="#m753ed33c0b" y="223.299160752"/>
    </g>
   </g>
   <g id="line2d_85">
    <path clip-path="url(#pec9dfa7cec)" d="M 253.35 264.117446 
L 281.25 264.117446 
L 281.25 198.570081 
L 253.35 198.570081 
L 253.35 264.117446 
" style="fill:none;stroke:#0000ff;stroke-linecap:square;"/>
   </g>
   <g id="line2d_86">
    <path clip-path="url(#pec9dfa7cec)" d="M 267.3 264.117446 
L 267.3 359.469561 
" style="fill:none;stroke:#0000ff;stroke-dasharray:6.000000,6.000000;stroke-dashoffset:0.0;"/>
   </g>
   <g id="line2d_87">
    <path clip-path="url(#pec9dfa7cec)" d="M 267.3 198.570081 
L 267.3 107.027526 
" style="fill:none;stroke:#0000ff;stroke-dasharray:6.000000,6.000000;stroke-dashoffset:0.0;"/>
   </g>
   <g id="line2d_88">
    <path clip-path="url(#pec9dfa7cec)" d="M 260.325 359.469561 
L 274.275 359.469561 
" style="fill:none;stroke:#000000;stroke-linecap:square;"/>
   </g>
   <g id="line2d_89">
    <path clip-path="url(#pec9dfa7cec)" d="M 260.325 107.027526 
L 274.275 107.027526 
" style="fill:none;stroke:#000000;stroke-linecap:square;"/>
   </g>
   <g id="line2d_90">
    <path clip-path="url(#pec9dfa7cec)" d="M 253.35 229.694921 
L 281.25 229.694921 
" style="fill:none;stroke:#ff0000;stroke-linecap:square;"/>
   </g>
   <g id="line2d_91">
    <path clip-path="url(#pec9dfa7cec)" d="M 267.3 233.343925 
" style="fill:none;stroke:#ff0000;stroke-linecap:square;"/>
    <g clip-path="url(#pec9dfa7cec)">
     <use style="fill:#ff0000;stroke:#000000;stroke-linejoin:miter;stroke-width:0.5;" x="267.3" xlink:href="#m753ed33c0b" y="233.343924914"/>
    </g>
   </g>
   <g id="line2d_92">
    <path clip-path="url(#pec9dfa7cec)" d="M 309.15 263.2086 
L 337.05 263.2086 
L 337.05 200.517016 
L 309.15 200.517016 
L 309.15 263.2086 
" style="fill:none;stroke:#0000ff;stroke-linecap:square;"/>
   </g>
   <g id="line2d_93">
    <path clip-path="url(#pec9dfa7cec)" d="M 323.1 263.2086 
L 323.1 355.536431 
" style="fill:none;stroke:#0000ff;stroke-dasharray:6.000000,6.000000;stroke-dashoffset:0.0;"/>
   </g>
   <g id="line2d_94">
    <path clip-path="url(#pec9dfa7cec)" d="M 323.1 200.517016 
L 323.1 114.888502 
" style="fill:none;stroke:#0000ff;stroke-dasharray:6.000000,6.000000;stroke-dashoffset:0.0;"/>
   </g>
   <g id="line2d_95">
    <path clip-path="url(#pec9dfa7cec)" d="M 316.125 355.536431 
L 330.075 355.536431 
" style="fill:none;stroke:#000000;stroke-linecap:square;"/>
   </g>
   <g id="line2d_96">
    <path clip-path="url(#pec9dfa7cec)" d="M 316.125 114.888502 
L 330.075 114.888502 
" style="fill:none;stroke:#000000;stroke-linecap:square;"/>
   </g>
   <g id="line2d_97">
    <path clip-path="url(#pec9dfa7cec)" d="M 309.15 228.982267 
L 337.05 228.982267 
" style="fill:none;stroke:#ff0000;stroke-linecap:square;"/>
   </g>
   <g id="line2d_98">
    <path clip-path="url(#pec9dfa7cec)" d="M 323.1 233.973576 
" style="fill:none;stroke:#ff0000;stroke-linecap:square;"/>
    <g clip-path="url(#pec9dfa7cec)">
     <use style="fill:#ff0000;stroke:#000000;stroke-linejoin:miter;stroke-width:0.5;" x="323.1" xlink:href="#m753ed33c0b" y="233.973576265"/>
    </g>
   </g>
   <g id="line2d_99">
    <path clip-path="url(#pec9dfa7cec)" d="M 364.95 304.917352 
L 392.85 304.917352 
L 392.85 266.499762 
L 364.95 266.499762 
L 364.95 304.917352 
" style="fill:none;stroke:#0000ff;stroke-linecap:square;"/>
   </g>
   <g id="line2d_100">
    <path clip-path="url(#pec9dfa7cec)" d="M 378.9 304.917352 
L 378.9 362.140632 
" style="fill:none;stroke:#0000ff;stroke-dasharray:6.000000,6.000000;stroke-dashoffset:0.0;"/>
   </g>
   <g id="line2d_101">
    <path clip-path="url(#pec9dfa7cec)" d="M 378.9 266.499762 
L 378.9 211.240086 
" style="fill:none;stroke:#0000ff;stroke-dasharray:6.000000,6.000000;stroke-dashoffset:0.0;"/>
   </g>
   <g id="line2d_102">
    <path clip-path="url(#pec9dfa7cec)" d="M 371.925 362.140632 
L 385.875 362.140632 
" style="fill:none;stroke:#000000;stroke-linecap:square;"/>
   </g>
   <g id="line2d_103">
    <path clip-path="url(#pec9dfa7cec)" d="M 371.925 211.240086 
L 385.875 211.240086 
" style="fill:none;stroke:#000000;stroke-linecap:square;"/>
   </g>
   <g id="line2d_104">
    <path clip-path="url(#pec9dfa7cec)" d="M 364.95 283.464246 
L 392.85 283.464246 
" style="fill:none;stroke:#ff0000;stroke-linecap:square;"/>
   </g>
   <g id="line2d_105">
    <path clip-path="url(#pec9dfa7cec)" d="M 378.9 286.607672 
" style="fill:none;stroke:#ff0000;stroke-linecap:square;"/>
    <g clip-path="url(#pec9dfa7cec)">
     <use style="fill:#ff0000;stroke:#000000;stroke-linejoin:miter;stroke-width:0.5;" x="378.9" xlink:href="#m753ed33c0b" y="286.607671908"/>
    </g>
   </g>
   <g id="line2d_106">
    <path clip-path="url(#pec9dfa7cec)" d="M 420.75 354.481284 
L 448.65 354.481284 
L 448.65 339.224746 
L 420.75 339.224746 
L 420.75 354.481284 
" style="fill:none;stroke:#0000ff;stroke-linecap:square;"/>
   </g>
   <g id="line2d_107">
    <path clip-path="url(#pec9dfa7cec)" d="M 434.7 354.481284 
L 434.7 376.147401 
" style="fill:none;stroke:#0000ff;stroke-dasharray:6.000000,6.000000;stroke-dashoffset:0.0;"/>
   </g>
   <g id="line2d_108">
    <path clip-path="url(#pec9dfa7cec)" d="M 434.7 339.224746 
L 434.7 316.913955 
" style="fill:none;stroke:#0000ff;stroke-dasharray:6.000000,6.000000;stroke-dashoffset:0.0;"/>
   </g>
   <g id="line2d_109">
    <path clip-path="url(#pec9dfa7cec)" d="M 427.725 376.147401 
L 441.675 376.147401 
" style="fill:none;stroke:#000000;stroke-linecap:square;"/>
   </g>
   <g id="line2d_110">
    <path clip-path="url(#pec9dfa7cec)" d="M 427.725 316.913955 
L 441.675 316.913955 
" style="fill:none;stroke:#000000;stroke-linecap:square;"/>
   </g>
   <g id="line2d_111">
    <path clip-path="url(#pec9dfa7cec)" d="M 420.75 346.470641 
L 448.65 346.470641 
" style="fill:none;stroke:#ff0000;stroke-linecap:square;"/>
   </g>
   <g id="line2d_112">
    <path clip-path="url(#pec9dfa7cec)" d="M 434.7 347.445519 
" style="fill:none;stroke:#ff0000;stroke-linecap:square;"/>
    <g clip-path="url(#pec9dfa7cec)">
     <use style="fill:#ff0000;stroke:#000000;stroke-linejoin:miter;stroke-width:0.5;" x="434.7" xlink:href="#m753ed33c0b" y="347.445519445"/>
    </g>
   </g>
   <g id="line2d_113">
    <path clip-path="url(#pec9dfa7cec)" d="M 476.55 367.818771 
L 504.45 367.818771 
L 504.45 357.724291 
L 476.55 357.724291 
L 476.55 367.818771 
" style="fill:none;stroke:#0000ff;stroke-linecap:square;"/>
   </g>
   <g id="line2d_114">
    <path clip-path="url(#pec9dfa7cec)" d="M 490.5 367.818771 
L 490.5 382.420785 
" style="fill:none;stroke:#0000ff;stroke-dasharray:6.000000,6.000000;stroke-dashoffset:0.0;"/>
   </g>
   <g id="line2d_115">
    <path clip-path="url(#pec9dfa7cec)" d="M 490.5 357.724291 
L 490.5 343.460304 
" style="fill:none;stroke:#0000ff;stroke-dasharray:6.000000,6.000000;stroke-dashoffset:0.0;"/>
   </g>
   <g id="line2d_116">
    <path clip-path="url(#pec9dfa7cec)" d="M 483.525 382.420785 
L 497.475 382.420785 
" style="fill:none;stroke:#000000;stroke-linecap:square;"/>
   </g>
   <g id="line2d_117">
    <path clip-path="url(#pec9dfa7cec)" d="M 483.525 343.460304 
L 497.475 343.460304 
" style="fill:none;stroke:#000000;stroke-linecap:square;"/>
   </g>
   <g id="line2d_118">
    <path clip-path="url(#pec9dfa7cec)" d="M 476.55 362.447287 
L 504.45 362.447287 
" style="fill:none;stroke:#ff0000;stroke-linecap:square;"/>
   </g>
   <g id="line2d_119">
    <path clip-path="url(#pec9dfa7cec)" d="M 490.5 362.973126 
" style="fill:none;stroke:#ff0000;stroke-linecap:square;"/>
    <g clip-path="url(#pec9dfa7cec)">
     <use style="fill:#ff0000;stroke:#000000;stroke-linejoin:miter;stroke-width:0.5;" x="490.5" xlink:href="#m753ed33c0b" y="362.973125869"/>
    </g>
   </g>
   <g id="patch_3">
    <path d="M 72 43.2 
L 518.4 43.2 
" style="fill:none;stroke:#000000;stroke-linecap:square;stroke-linejoin:miter;"/>
   </g>
   <g id="patch_4">
    <path d="M 518.4 388.8 
L 518.4 43.2 
" style="fill:none;stroke:#000000;stroke-linecap:square;stroke-linejoin:miter;"/>
   </g>
   <g id="patch_5">
    <path d="M 72 388.8 
L 518.4 388.8 
" style="fill:none;stroke:#000000;stroke-linecap:square;stroke-linejoin:miter;"/>
   </g>
   <g id="patch_6">
    <path d="M 72 388.8 
L 72 43.2 
" style="fill:none;stroke:#000000;stroke-linecap:square;stroke-linejoin:miter;"/>
   </g>
   <g id="matplotlib.axis_1">
    <g id="xtick_1">
     <g id="line2d_120">
      <defs>
       <path d="M 0 0 
L 0 -4 
" id="m2fcc0f7174" style="stroke:#000000;stroke-width:0.5;"/>
      </defs>
      <g>
       <use style="stroke:#000000;stroke-width:0.5;" x="99.9" xlink:href="#m2fcc0f7174" y="388.8"/>
      </g>
     </g>
     <g id="line2d_121">
      <defs>
       <path d="M 0 0 
L 0 4 
" id="m146da38a47" style="stroke:#000000;stroke-width:0.5;"/>
      </defs>
      <g>
       <use style="stroke:#000000;stroke-width:0.5;" x="99.9" xlink:href="#m146da38a47" y="43.2"/>
      </g>
     </g>
     <g id="text_1">
      <!-- 10 -->
      <defs>
       <path d="M 12.40625 8.296875 
L 28.515625 8.296875 
L 28.515625 63.921875 
L 10.984375 60.40625 
L 10.984375 69.390625 
L 28.421875 72.90625 
L 38.28125 72.90625 
L 38.28125 8.296875 
L 54.390625 8.296875 
L 54.390625 0 
L 12.40625 0 
z
" id="DejaVuSans-31"/>
       <path d="M 31.78125 66.40625 
Q 24.171875 66.40625 20.328125 58.90625 
Q 16.5 51.421875 16.5 36.375 
Q 16.5 21.390625 20.328125 13.890625 
Q 24.171875 6.390625 31.78125 6.390625 
Q 39.453125 6.390625 43.28125 13.890625 
Q 47.125 21.390625 47.125 36.375 
Q 47.125 51.421875 43.28125 58.90625 
Q 39.453125 66.40625 31.78125 66.40625 
M 31.78125 74.21875 
Q 44.046875 74.21875 50.515625 64.515625 
Q 56.984375 54.828125 56.984375 36.375 
Q 56.984375 17.96875 50.515625 8.265625 
Q 44.046875 -1.421875 31.78125 -1.421875 
Q 19.53125 -1.421875 13.0625 8.265625 
Q 6.59375 17.96875 6.59375 36.375 
Q 6.59375 54.828125 13.0625 64.515625 
Q 19.53125 74.21875 31.78125 74.21875 
" id="DejaVuSans-30"/>
      </defs>
      <g transform="translate(92.265 401.918125)scale(0.12 -0.12)">
       <use xlink:href="#DejaVuSans-31"/>
       <use x="63.623046875" xlink:href="#DejaVuSans-30"/>
      </g>
     </g>
    </g>
    <g id="xtick_2">
     <g id="line2d_122">
      <g>
       <use style="stroke:#000000;stroke-width:0.5;" x="155.7" xlink:href="#m2fcc0f7174" y="388.8"/>
      </g>
     </g>
     <g id="line2d_123">
      <g>
       <use style="stroke:#000000;stroke-width:0.5;" x="155.7" xlink:href="#m146da38a47" y="43.2"/>
      </g>
     </g>
     <g id="text_2">
      <!-- 20 -->
      <defs>
       <path d="M 19.1875 8.296875 
L 53.609375 8.296875 
L 53.609375 0 
L 7.328125 0 
L 7.328125 8.296875 
Q 12.9375 14.109375 22.625 23.890625 
Q 32.328125 33.6875 34.8125 36.53125 
Q 39.546875 41.84375 41.421875 45.53125 
Q 43.3125 49.21875 43.3125 52.78125 
Q 43.3125 58.59375 39.234375 62.25 
Q 35.15625 65.921875 28.609375 65.921875 
Q 23.96875 65.921875 18.8125 64.3125 
Q 13.671875 62.703125 7.8125 59.421875 
L 7.8125 69.390625 
Q 13.765625 71.78125 18.9375 73 
Q 24.125 74.21875 28.421875 74.21875 
Q 39.75 74.21875 46.484375 68.546875 
Q 53.21875 62.890625 53.21875 53.421875 
Q 53.21875 48.921875 51.53125 44.890625 
Q 49.859375 40.875 45.40625 35.40625 
Q 44.1875 33.984375 37.640625 27.21875 
Q 31.109375 20.453125 19.1875 8.296875 
" id="DejaVuSans-32"/>
      </defs>
      <g transform="translate(148.065 401.918125)scale(0.12 -0.12)">
       <use xlink:href="#DejaVuSans-32"/>
       <use x="63.623046875" xlink:href="#DejaVuSans-30"/>
      </g>
     </g>
    </g>
    <g id="xtick_3">
     <g id="line2d_124">
      <g>
       <use style="stroke:#000000;stroke-width:0.5;" x="211.5" xlink:href="#m2fcc0f7174" y="388.8"/>
      </g>
     </g>
     <g id="line2d_125">
      <g>
       <use style="stroke:#000000;stroke-width:0.5;" x="211.5" xlink:href="#m146da38a47" y="43.2"/>
      </g>
     </g>
     <g id="text_3">
      <!-- 30 -->
      <defs>
       <path d="M 40.578125 39.3125 
Q 47.65625 37.796875 51.625 33 
Q 55.609375 28.21875 55.609375 21.1875 
Q 55.609375 10.40625 48.1875 4.484375 
Q 40.765625 -1.421875 27.09375 -1.421875 
Q 22.515625 -1.421875 17.65625 -0.515625 
Q 12.796875 0.390625 7.625 2.203125 
L 7.625 11.71875 
Q 11.71875 9.328125 16.59375 8.109375 
Q 21.484375 6.890625 26.8125 6.890625 
Q 36.078125 6.890625 40.9375 10.546875 
Q 45.796875 14.203125 45.796875 21.1875 
Q 45.796875 27.640625 41.28125 31.265625 
Q 36.765625 34.90625 28.71875 34.90625 
L 20.21875 34.90625 
L 20.21875 43.015625 
L 29.109375 43.015625 
Q 36.375 43.015625 40.234375 45.921875 
Q 44.09375 48.828125 44.09375 54.296875 
Q 44.09375 59.90625 40.109375 62.90625 
Q 36.140625 65.921875 28.71875 65.921875 
Q 24.65625 65.921875 20.015625 65.03125 
Q 15.375 64.15625 9.8125 62.3125 
L 9.8125 71.09375 
Q 15.4375 72.65625 20.34375 73.4375 
Q 25.25 74.21875 29.59375 74.21875 
Q 40.828125 74.21875 47.359375 69.109375 
Q 53.90625 64.015625 53.90625 55.328125 
Q 53.90625 49.265625 50.4375 45.09375 
Q 46.96875 40.921875 40.578125 39.3125 
" id="DejaVuSans-33"/>
      </defs>
      <g transform="translate(203.865 401.918125)scale(0.12 -0.12)">
       <use xlink:href="#DejaVuSans-33"/>
       <use x="63.623046875" xlink:href="#DejaVuSans-30"/>
      </g>
     </g>
    </g>
    <g id="xtick_4">
     <g id="line2d_126">
      <g>
       <use style="stroke:#000000;stroke-width:0.5;" x="267.3" xlink:href="#m2fcc0f7174" y="388.8"/>
      </g>
     </g>
     <g id="line2d_127">
      <g>
       <use style="stroke:#000000;stroke-width:0.5;" x="267.3" xlink:href="#m146da38a47" y="43.2"/>
      </g>
     </g>
     <g id="text_4">
      <!-- 40 -->
      <defs>
       <path d="M 37.796875 64.3125 
L 12.890625 25.390625 
L 37.796875 25.390625 
z
M 35.203125 72.90625 
L 47.609375 72.90625 
L 47.609375 25.390625 
L 58.015625 25.390625 
L 58.015625 17.1875 
L 47.609375 17.1875 
L 47.609375 0 
L 37.796875 0 
L 37.796875 17.1875 
L 4.890625 17.1875 
L 4.890625 26.703125 
z
" id="DejaVuSans-34"/>
      </defs>
      <g transform="translate(259.665 401.918125)scale(0.12 -0.12)">
       <use xlink:href="#DejaVuSans-34"/>
       <use x="63.623046875" xlink:href="#DejaVuSans-30"/>
      </g>
     </g>
    </g>
    <g id="xtick_5">
     <g id="line2d_128">
      <g>
       <use style="stroke:#000000;stroke-width:0.5;" x="323.1" xlink:href="#m2fcc0f7174" y="388.8"/>
      </g>
     </g>
     <g id="line2d_129">
      <g>
       <use style="stroke:#000000;stroke-width:0.5;" x="323.1" xlink:href="#m146da38a47" y="43.2"/>
      </g>
     </g>
     <g id="text_5">
      <!-- 50 -->
      <defs>
       <path d="M 10.796875 72.90625 
L 49.515625 72.90625 
L 49.515625 64.59375 
L 19.828125 64.59375 
L 19.828125 46.734375 
Q 21.96875 47.46875 24.109375 47.828125 
Q 26.265625 48.1875 28.421875 48.1875 
Q 40.625 48.1875 47.75 41.5 
Q 54.890625 34.8125 54.890625 23.390625 
Q 54.890625 11.625 47.5625 5.09375 
Q 40.234375 -1.421875 26.90625 -1.421875 
Q 22.3125 -1.421875 17.546875 -0.640625 
Q 12.796875 0.140625 7.71875 1.703125 
L 7.71875 11.625 
Q 12.109375 9.234375 16.796875 8.0625 
Q 21.484375 6.890625 26.703125 6.890625 
Q 35.15625 6.890625 40.078125 11.328125 
Q 45.015625 15.765625 45.015625 23.390625 
Q 45.015625 31 40.078125 35.4375 
Q 35.15625 39.890625 26.703125 39.890625 
Q 22.75 39.890625 18.8125 39.015625 
Q 14.890625 38.140625 10.796875 36.28125 
z
" id="DejaVuSans-35"/>
      </defs>
      <g transform="translate(315.465 401.918125)scale(0.12 -0.12)">
       <use xlink:href="#DejaVuSans-35"/>
       <use x="63.623046875" xlink:href="#DejaVuSans-30"/>
      </g>
     </g>
    </g>
    <g id="xtick_6">
     <g id="line2d_130">
      <g>
       <use style="stroke:#000000;stroke-width:0.5;" x="378.9" xlink:href="#m2fcc0f7174" y="388.8"/>
      </g>
     </g>
     <g id="line2d_131">
      <g>
       <use style="stroke:#000000;stroke-width:0.5;" x="378.9" xlink:href="#m146da38a47" y="43.2"/>
      </g>
     </g>
     <g id="text_6">
      <!-- 100 -->
      <g transform="translate(367.4475 401.918125)scale(0.12 -0.12)">
       <use xlink:href="#DejaVuSans-31"/>
       <use x="63.623046875" xlink:href="#DejaVuSans-30"/>
       <use x="127.24609375" xlink:href="#DejaVuSans-30"/>
      </g>
     </g>
    </g>
    <g id="xtick_7">
     <g id="line2d_132">
      <g>
       <use style="stroke:#000000;stroke-width:0.5;" x="434.7" xlink:href="#m2fcc0f7174" y="388.8"/>
      </g>
     </g>
     <g id="line2d_133">
      <g>
       <use style="stroke:#000000;stroke-width:0.5;" x="434.7" xlink:href="#m146da38a47" y="43.2"/>
      </g>
     </g>
     <g id="text_7">
      <!-- 331 -->
      <g transform="translate(423.2475 401.918125)scale(0.12 -0.12)">
       <use xlink:href="#DejaVuSans-33"/>
       <use x="63.623046875" xlink:href="#DejaVuSans-33"/>
       <use x="127.24609375" xlink:href="#DejaVuSans-31"/>
      </g>
     </g>
    </g>
    <g id="xtick_8">
     <g id="line2d_134">
      <g>
       <use style="stroke:#000000;stroke-width:0.5;" x="490.5" xlink:href="#m2fcc0f7174" y="388.8"/>
      </g>
     </g>
     <g id="line2d_135">
      <g>
       <use style="stroke:#000000;stroke-width:0.5;" x="490.5" xlink:href="#m146da38a47" y="43.2"/>
      </g>
     </g>
     <g id="text_8">
      <!-- No PCA -->
      <defs>
       <path d="M 9.8125 72.90625 
L 23.09375 72.90625 
L 55.421875 11.921875 
L 55.421875 72.90625 
L 64.984375 72.90625 
L 64.984375 0 
L 51.703125 0 
L 19.390625 60.984375 
L 19.390625 0 
L 9.8125 0 
z
" id="DejaVuSans-4e"/>
       <path d="M 30.609375 48.390625 
Q 23.390625 48.390625 19.1875 42.75 
Q 14.984375 37.109375 14.984375 27.296875 
Q 14.984375 17.484375 19.15625 11.84375 
Q 23.34375 6.203125 30.609375 6.203125 
Q 37.796875 6.203125 41.984375 11.859375 
Q 46.1875 17.53125 46.1875 27.296875 
Q 46.1875 37.015625 41.984375 42.703125 
Q 37.796875 48.390625 30.609375 48.390625 
M 30.609375 56 
Q 42.328125 56 49.015625 48.375 
Q 55.71875 40.765625 55.71875 27.296875 
Q 55.71875 13.875 49.015625 6.21875 
Q 42.328125 -1.421875 30.609375 -1.421875 
Q 18.84375 -1.421875 12.171875 6.21875 
Q 5.515625 13.875 5.515625 27.296875 
Q 5.515625 40.765625 12.171875 48.375 
Q 18.84375 56 30.609375 56 
" id="DejaVuSans-6f"/>
       <path id="DejaVuSans-20"/>
       <path d="M 34.1875 63.1875 
L 20.796875 26.90625 
L 47.609375 26.90625 
z
M 28.609375 72.90625 
L 39.796875 72.90625 
L 67.578125 0 
L 57.328125 0 
L 50.6875 18.703125 
L 17.828125 18.703125 
L 11.1875 0 
L 0.78125 0 
z
" id="DejaVuSans-41"/>
       <path d="M 64.40625 67.28125 
L 64.40625 56.890625 
Q 59.421875 61.53125 53.78125 63.8125 
Q 48.140625 66.109375 41.796875 66.109375 
Q 29.296875 66.109375 22.65625 58.46875 
Q 16.015625 50.828125 16.015625 36.375 
Q 16.015625 21.96875 22.65625 14.328125 
Q 29.296875 6.6875 41.796875 6.6875 
Q 48.140625 6.6875 53.78125 8.984375 
Q 59.421875 11.28125 64.40625 15.921875 
L 64.40625 5.609375 
Q 59.234375 2.09375 53.4375 0.328125 
Q 47.65625 -1.421875 41.21875 -1.421875 
Q 24.65625 -1.421875 15.125 8.703125 
Q 5.609375 18.84375 5.609375 36.375 
Q 5.609375 53.953125 15.125 64.078125 
Q 24.65625 74.21875 41.21875 74.21875 
Q 47.75 74.21875 53.53125 72.484375 
Q 59.328125 70.75 64.40625 67.28125 
" id="DejaVuSans-43"/>
       <path d="M 19.671875 64.796875 
L 19.671875 37.40625 
L 32.078125 37.40625 
Q 38.96875 37.40625 42.71875 40.96875 
Q 46.484375 44.53125 46.484375 51.125 
Q 46.484375 57.671875 42.71875 61.234375 
Q 38.96875 64.796875 32.078125 64.796875 
z
M 9.8125 72.90625 
L 32.078125 72.90625 
Q 44.34375 72.90625 50.609375 67.359375 
Q 56.890625 61.8125 56.890625 51.125 
Q 56.890625 40.328125 50.609375 34.8125 
Q 44.34375 29.296875 32.078125 29.296875 
L 19.671875 29.296875 
L 19.671875 0 
L 9.8125 0 
z
" id="DejaVuSans-50"/>
      </defs>
      <g transform="translate(468.52125 401.918125)scale(0.12 -0.12)">
       <use xlink:href="#DejaVuSans-4e"/>
       <use x="74.8046875" xlink:href="#DejaVuSans-6f"/>
       <use x="135.986328125" xlink:href="#DejaVuSans-20"/>
       <use x="167.7734375" xlink:href="#DejaVuSans-50"/>
       <use x="228.076171875" xlink:href="#DejaVuSans-43"/>
       <use x="297.900390625" xlink:href="#DejaVuSans-41"/>
      </g>
     </g>
    </g>
   </g>
   <g id="matplotlib.axis_2">
    <g id="ytick_1">
     <g id="line2d_136">
      <defs>
       <path d="M 0 0 
L 4 0 
" id="m4b81442378" style="stroke:#000000;stroke-width:0.5;"/>
      </defs>
      <g>
       <use style="stroke:#000000;stroke-width:0.5;" x="72.0" xlink:href="#m4b81442378" y="388.8"/>
      </g>
     </g>
     <g id="line2d_137">
      <defs>
       <path d="M 0 0 
L -4 0 
" id="me9c7332ac8" style="stroke:#000000;stroke-width:0.5;"/>
      </defs>
      <g>
       <use style="stroke:#000000;stroke-width:0.5;" x="518.4" xlink:href="#me9c7332ac8" y="388.8"/>
      </g>
     </g>
     <g id="text_9">
      <!-- 0.0 -->
      <defs>
       <path d="M 10.6875 12.40625 
L 21 12.40625 
L 21 0 
L 10.6875 0 
z
" id="DejaVuSans-2e"/>
      </defs>
      <g transform="translate(48.91625 392.11125)scale(0.12 -0.12)">
       <use xlink:href="#DejaVuSans-30"/>
       <use x="63.623046875" xlink:href="#DejaVuSans-2e"/>
       <use x="95.41015625" xlink:href="#DejaVuSans-30"/>
      </g>
     </g>
    </g>
    <g id="ytick_2">
     <g id="line2d_138">
      <g>
       <use style="stroke:#000000;stroke-width:0.5;" x="72.0" xlink:href="#m4b81442378" y="345.6"/>
      </g>
     </g>
     <g id="line2d_139">
      <g>
       <use style="stroke:#000000;stroke-width:0.5;" x="518.4" xlink:href="#me9c7332ac8" y="345.6"/>
      </g>
     </g>
     <g id="text_10">
      <!-- 0.2 -->
      <g transform="translate(48.91625 348.91125)scale(0.12 -0.12)">
       <use xlink:href="#DejaVuSans-30"/>
       <use x="63.623046875" xlink:href="#DejaVuSans-2e"/>
       <use x="95.41015625" xlink:href="#DejaVuSans-32"/>
      </g>
     </g>
    </g>
    <g id="ytick_3">
     <g id="line2d_140">
      <g>
       <use style="stroke:#000000;stroke-width:0.5;" x="72.0" xlink:href="#m4b81442378" y="302.4"/>
      </g>
     </g>
     <g id="line2d_141">
      <g>
       <use style="stroke:#000000;stroke-width:0.5;" x="518.4" xlink:href="#me9c7332ac8" y="302.4"/>
      </g>
     </g>
     <g id="text_11">
      <!-- 0.4 -->
      <g transform="translate(48.91625 305.71125)scale(0.12 -0.12)">
       <use xlink:href="#DejaVuSans-30"/>
       <use x="63.623046875" xlink:href="#DejaVuSans-2e"/>
       <use x="95.41015625" xlink:href="#DejaVuSans-34"/>
      </g>
     </g>
    </g>
    <g id="ytick_4">
     <g id="line2d_142">
      <g>
       <use style="stroke:#000000;stroke-width:0.5;" x="72.0" xlink:href="#m4b81442378" y="259.2"/>
      </g>
     </g>
     <g id="line2d_143">
      <g>
       <use style="stroke:#000000;stroke-width:0.5;" x="518.4" xlink:href="#me9c7332ac8" y="259.2"/>
      </g>
     </g>
     <g id="text_12">
      <!-- 0.6 -->
      <defs>
       <path d="M 33.015625 40.375 
Q 26.375 40.375 22.484375 35.828125 
Q 18.609375 31.296875 18.609375 23.390625 
Q 18.609375 15.53125 22.484375 10.953125 
Q 26.375 6.390625 33.015625 6.390625 
Q 39.65625 6.390625 43.53125 10.953125 
Q 47.40625 15.53125 47.40625 23.390625 
Q 47.40625 31.296875 43.53125 35.828125 
Q 39.65625 40.375 33.015625 40.375 
M 52.59375 71.296875 
L 52.59375 62.3125 
Q 48.875 64.0625 45.09375 64.984375 
Q 41.3125 65.921875 37.59375 65.921875 
Q 27.828125 65.921875 22.671875 59.328125 
Q 17.53125 52.734375 16.796875 39.40625 
Q 19.671875 43.65625 24.015625 45.921875 
Q 28.375 48.1875 33.59375 48.1875 
Q 44.578125 48.1875 50.953125 41.515625 
Q 57.328125 34.859375 57.328125 23.390625 
Q 57.328125 12.15625 50.6875 5.359375 
Q 44.046875 -1.421875 33.015625 -1.421875 
Q 20.359375 -1.421875 13.671875 8.265625 
Q 6.984375 17.96875 6.984375 36.375 
Q 6.984375 53.65625 15.1875 63.9375 
Q 23.390625 74.21875 37.203125 74.21875 
Q 40.921875 74.21875 44.703125 73.484375 
Q 48.484375 72.75 52.59375 71.296875 
" id="DejaVuSans-36"/>
      </defs>
      <g transform="translate(48.91625 262.51125)scale(0.12 -0.12)">
       <use xlink:href="#DejaVuSans-30"/>
       <use x="63.623046875" xlink:href="#DejaVuSans-2e"/>
       <use x="95.41015625" xlink:href="#DejaVuSans-36"/>
      </g>
     </g>
    </g>
    <g id="ytick_5">
     <g id="line2d_144">
      <g>
       <use style="stroke:#000000;stroke-width:0.5;" x="72.0" xlink:href="#m4b81442378" y="216.0"/>
      </g>
     </g>
     <g id="line2d_145">
      <g>
       <use style="stroke:#000000;stroke-width:0.5;" x="518.4" xlink:href="#me9c7332ac8" y="216.0"/>
      </g>
     </g>
     <g id="text_13">
      <!-- 0.8 -->
      <defs>
       <path d="M 31.78125 34.625 
Q 24.75 34.625 20.71875 30.859375 
Q 16.703125 27.09375 16.703125 20.515625 
Q 16.703125 13.921875 20.71875 10.15625 
Q 24.75 6.390625 31.78125 6.390625 
Q 38.8125 6.390625 42.859375 10.171875 
Q 46.921875 13.96875 46.921875 20.515625 
Q 46.921875 27.09375 42.890625 30.859375 
Q 38.875 34.625 31.78125 34.625 
M 21.921875 38.8125 
Q 15.578125 40.375 12.03125 44.71875 
Q 8.5 49.078125 8.5 55.328125 
Q 8.5 64.0625 14.71875 69.140625 
Q 20.953125 74.21875 31.78125 74.21875 
Q 42.671875 74.21875 48.875 69.140625 
Q 55.078125 64.0625 55.078125 55.328125 
Q 55.078125 49.078125 51.53125 44.71875 
Q 48 40.375 41.703125 38.8125 
Q 48.828125 37.15625 52.796875 32.3125 
Q 56.78125 27.484375 56.78125 20.515625 
Q 56.78125 9.90625 50.3125 4.234375 
Q 43.84375 -1.421875 31.78125 -1.421875 
Q 19.734375 -1.421875 13.25 4.234375 
Q 6.78125 9.90625 6.78125 20.515625 
Q 6.78125 27.484375 10.78125 32.3125 
Q 14.796875 37.15625 21.921875 38.8125 
M 18.3125 54.390625 
Q 18.3125 48.734375 21.84375 45.5625 
Q 25.390625 42.390625 31.78125 42.390625 
Q 38.140625 42.390625 41.71875 45.5625 
Q 45.3125 48.734375 45.3125 54.390625 
Q 45.3125 60.0625 41.71875 63.234375 
Q 38.140625 66.40625 31.78125 66.40625 
Q 25.390625 66.40625 21.84375 63.234375 
Q 18.3125 60.0625 18.3125 54.390625 
" id="DejaVuSans-38"/>
      </defs>
      <g transform="translate(48.91625 219.31125)scale(0.12 -0.12)">
       <use xlink:href="#DejaVuSans-30"/>
       <use x="63.623046875" xlink:href="#DejaVuSans-2e"/>
       <use x="95.41015625" xlink:href="#DejaVuSans-38"/>
      </g>
     </g>
    </g>
    <g id="ytick_6">
     <g id="line2d_146">
      <g>
       <use style="stroke:#000000;stroke-width:0.5;" x="72.0" xlink:href="#m4b81442378" y="172.8"/>
      </g>
     </g>
     <g id="line2d_147">
      <g>
       <use style="stroke:#000000;stroke-width:0.5;" x="518.4" xlink:href="#me9c7332ac8" y="172.8"/>
      </g>
     </g>
     <g id="text_14">
      <!-- 1.0 -->
      <g transform="translate(48.91625 176.11125)scale(0.12 -0.12)">
       <use xlink:href="#DejaVuSans-31"/>
       <use x="63.623046875" xlink:href="#DejaVuSans-2e"/>
       <use x="95.41015625" xlink:href="#DejaVuSans-30"/>
      </g>
     </g>
    </g>
    <g id="ytick_7">
     <g id="line2d_148">
      <g>
       <use style="stroke:#000000;stroke-width:0.5;" x="72.0" xlink:href="#m4b81442378" y="129.6"/>
      </g>
     </g>
     <g id="line2d_149">
      <g>
       <use style="stroke:#000000;stroke-width:0.5;" x="518.4" xlink:href="#me9c7332ac8" y="129.6"/>
      </g>
     </g>
     <g id="text_15">
      <!-- 1.2 -->
      <g transform="translate(48.91625 132.91125)scale(0.12 -0.12)">
       <use xlink:href="#DejaVuSans-31"/>
       <use x="63.623046875" xlink:href="#DejaVuSans-2e"/>
       <use x="95.41015625" xlink:href="#DejaVuSans-32"/>
      </g>
     </g>
    </g>
    <g id="ytick_8">
     <g id="line2d_150">
      <g>
       <use style="stroke:#000000;stroke-width:0.5;" x="72.0" xlink:href="#m4b81442378" y="86.4"/>
      </g>
     </g>
     <g id="line2d_151">
      <g>
       <use style="stroke:#000000;stroke-width:0.5;" x="518.4" xlink:href="#me9c7332ac8" y="86.4"/>
      </g>
     </g>
     <g id="text_16">
      <!-- 1.4 -->
      <g transform="translate(48.91625 89.71125)scale(0.12 -0.12)">
       <use xlink:href="#DejaVuSans-31"/>
       <use x="63.623046875" xlink:href="#DejaVuSans-2e"/>
       <use x="95.41015625" xlink:href="#DejaVuSans-34"/>
      </g>
     </g>
    </g>
    <g id="ytick_9">
     <g id="line2d_152">
      <g>
       <use style="stroke:#000000;stroke-width:0.5;" x="72.0" xlink:href="#m4b81442378" y="43.2"/>
      </g>
     </g>
     <g id="line2d_153">
      <g>
       <use style="stroke:#000000;stroke-width:0.5;" x="518.4" xlink:href="#me9c7332ac8" y="43.2"/>
      </g>
     </g>
     <g id="text_17">
      <!-- 1.6 -->
      <g transform="translate(48.91625 46.51125)scale(0.12 -0.12)">
       <use xlink:href="#DejaVuSans-31"/>
       <use x="63.623046875" xlink:href="#DejaVuSans-2e"/>
       <use x="95.41015625" xlink:href="#DejaVuSans-36"/>
      </g>
     </g>
    </g>
   </g>
  </g>
 </g>
 <defs>
  <clipPath id="pec9dfa7cec">
   <rect height="345.6" width="446.4" x="72.0" y="43.2"/>
  </clipPath>
 </defs>
</svg>
